<svg xmlns="http://www.w3.org/2000/svg" viewBox="0 0 464.42 151.54"><defs><style>.cls-1{fill:#fff;}</style></defs><title>logito</title><g id="Capa_2" data-name="Capa 2"><g id="Layer_1" data-name="Layer 1"><path class="cls-1" d="M464.42,16A11.17,11.17,0,1,1,453.28,5.15,10.93,10.93,0,0,1,464.42,16Zm-19.56,0a8.42,8.42,0,0,0,8.49,8.68,8.32,8.32,0,0,0,8.28-8.62c0-4.83-3.51-8.75-8.35-8.75A8.46,8.46,0,0,0,444.86,16Zm6.7,5.7H449V10.85a21.84,21.84,0,0,1,4.17-.33,6.8,6.8,0,0,1,3.78.79,3,3,0,0,1,1.06,2.39,2.78,2.78,0,0,1-2.25,2.52v.13a3.21,3.21,0,0,1,2,2.65,8.48,8.48,0,0,0,.79,2.72h-2.71a9.26,9.26,0,0,1-.87-2.65c-.19-1.2-.86-1.73-2.25-1.73h-1.19Zm.06-6.17h1.2c1.39,0,2.52-.46,2.52-1.59s-.73-1.65-2.32-1.65a5.93,5.93,0,0,0-1.4.13Z"/><polygon class="cls-1" points="319.71 136.34 323.19 136.34 321.44 130.95 319.71 136.34"/><path class="cls-1" d="M215.88,130.33h-1.26v3.95H216a2,2,0,1,0-.15-3.95Z"/><polygon class="cls-1" points="267.77 35.14 264.45 38.46 264.45 88.26 267.77 91.45 282.81 91.45 286.01 88.26 286.01 38.46 282.81 35.14 267.77 35.14"/><path class="cls-1" d="M290.73,130.35h-1.07v9.73h1.07c2.84,0,4.68-1.65,4.68-4.88S293.57,130.35,290.73,130.35Z"/><path class="cls-1" d="M349.19,130.35h-1.07v9.73h1.07c2.84,0,4.68-1.65,4.68-4.88S352,130.35,349.19,130.35Z"/><path class="cls-1" d="M429.71,47.12V0H250a5.54,5.54,0,0,0-4,1.65L232.79,14.94,219.56,1.65a5.58,5.58,0,0,0-4-1.65H0V47.12H6.16V79.47H0V126.6H55.45v14.81a10.13,10.13,0,0,0,10.13,10.13H364.13a10.14,10.14,0,0,0,10.13-10.13V126.73s0-.09,0-.13h55.46V79.47h-6.16V47.12Zm-377.19-12H46.36V91.45h6.16v23.17H12V91.45h6.16V35.14H12V12H52.52ZM87,137.06c0,3.53-2.15,5.9-6,5.9s-6-2.37-6-5.9v-9.34h3v9.34a3,3,0,1,0,6,0v-9.34h3Zm30.37,5.62h-3l-6.45-10.17v10.17h-3v-15H108L114.4,138V127.72h3Zm21,0h-3v-15h3Zm7.76-101.5h-23v-6H117V91.45h6.16v23.17H82.46V91.45h6.28V35.14H82.46v6h-23V12h86.74Zm17.76,101.5h-3.27l-5.51-15h3.31l3.83,11.42,3.82-11.42h3.32Zm30.12,0h-7.89v-15h7.69v2.72h-4.68v3.33h4v2.67h-4V140H194Zm25.09,0-2.9-5.85h-1.61v5.85h-3v-15h4.51c3.27,0,5.06,2,5.06,4.45a4.34,4.34,0,0,1-2.26,4l3.55,6.56Zm10.2-94.1H201.11V38.44l-3.2-3.3h-15l-3.33,3.31V48.72l3.33,3.18h30.06l16.39,16.51V98.23l-16.39,16.39H167.72L151.34,98.23V78.52h28.21v9.61l3.33,3.32h15l3.2-3.2V78.39l-3.2-3.32H167.72L151.34,58.71V28.46L167.72,12h45.22l16.39,16.45ZM243.28,143a5.06,5.06,0,0,1-5-3.46l2.55-1.24a2.79,2.79,0,0,0,2.58,1.9c1.11,0,1.78-.57,1.78-1.54,0-2.56-6.46-2.13-6.46-6.92,0-2.52,1.84-4.25,4.7-4.25a4.71,4.71,0,0,1,4.62,3.27l-2.5,1.13a2.34,2.34,0,0,0-2.18-1.63,1.45,1.45,0,0,0-1.62,1.44c0,2.47,6.49,2.11,6.49,6.75C248.28,141,246.4,143,243.28,143Zm25.33-.28h-3v-15h3Zm22,0h-4v-15h4c4.9,0,7.93,2.8,7.93,7.48S295.5,142.68,290.62,142.68Zm23.61-44.43-16.39,16.37H252.62L236.23,98.25V28.47L252.62,12h45.22l16.39,16.49Zm11.06,44.43L324,138.84H318.9l-1.31,3.84h-3l5.3-15H323l5.3,15Zm23.79,0h-4v-15h4c4.89,0,7.93,2.8,7.93,7.48S354,142.68,349.08,142.68ZM417.73,35.14h-6.16V91.45h6.16v23.17h-34l-27.6-46V91.45h6.16v23.17H321.74V91.45h6.16V35.14h-6.16V12h33.39l28.22,47.07V35.14h-6.16V12h40.54Z"/></g></g></svg>